<svg data-v-0dd9719b="" version="1.0" xmlns="http://www.w3.org/2000/svg" xmlns:xlink="http://www.w3.org/1999/xlink" width="100%" height="100%" viewBox="0 0 340.000000 250.000000" preserveAspectRatio="xMidYMid meet" color-interpolation-filters="sRGB" style="margin: auto;"> <rect data-v-0dd9719b="" x="0" y="0" width="100%" height="100%" fill="#fff" fill-opacity="1" class="background"></rect> <rect data-v-0dd9719b="" x="0" y="0" width="100%" height="100%" fill="url(#watermark)" fill-opacity="1" class="watermarklayer"></rect> <g data-v-0dd9719b="" fill="#333" class="icon-text-wrapper icon-svg-group iconsvg" transform="translate(48.81500244140625,94.96395683288574)"><g class="iconsvg-imagesvg" transform="translate(0,0)"><g><rect fill="#333" fill-opacity="0" stroke-width="2" x="0" y="0" width="60" height="60.07208650380456" class="image-rect"></rect> <svg x="0" y="0" width="60" height="60.07208650380456" filtersec="colorsb2353351640" class="image-svg-svg primary" style="overflow: visible;"><svg xmlns="http://www.w3.org/2000/svg" viewBox="0 -0.00001430726933904225 99.8800048828125 100.00004577636719"><g fill-rule="evenodd"><path d="M10.85 81.18L46.64 87V76.88l-40.3-2.39a49.59 49.59 0 0 0 4.51 6.69zM51.52 100v-8.74l-37.47-6.45A49.85 49.85 0 0 0 49.94 100h1.58zM1.57 62.7l63.7 1.11v10L3.15 67.68a48.89 48.89 0 0 1-1.58-5zM.49 57.48l56.82 3.27V50.54L0 52.53c.08 1.67.25 3.32.49 4.95zM0 47.19L44.45 49V38.39l-43.94 4C.27 44 .11 45.58 0 47.19zM1.62 37.09l32.83-1.35v-10l-30.66 5a49 49 0 0 0-2.17 6.35zM6.32 25.55l35.4-3.08V11.64l-30 6.12a49.44 49.44 0 0 0-5.41 7.79zM49.63 0v9.2L15.26 14A49.84 49.84 0 0 1 49.63 0z" fill="#2491eb"></path><path d="M90 80l-43.36 7V76.88l47.12-2.8A50.6 50.6 0 0 1 90 80zM51.52 100v-8.74l34.33-6.48A49.82 49.82 0 0 1 51.52 100zM96.25 68.86l-31 5v-10l33-1.08a49 49 0 0 1-2 6.13zM99.42 57.18l-42.11 3.57V50.54l42.57 1.71c-.07 1.66-.23 3.31-.46 4.93zM99.88 47.67L44.45 49V38.39l54.81 3.38a49.74 49.74 0 0 1 .62 5.9zM98.19 36.88l-63.74-1.14v-10l62 5.95a48.69 48.69 0 0 1 1.72 5.2zM93.78 26l-52.06-3.53V11.64l47.39 7.29a50.45 50.45 0 0 1 4.67 7zM49.63 0v9.2l35.18 5A49.82 49.82 0 0 0 49.94 0z" fill="#145593"></path></g></svg></svg> <!----></g></g> <g transform="translate(67,2.0197925567626953)"><g data-gra="path-name" fill-rule="" class="tp-name iconsvg-namesvg" transform="translate(0,0)"><g transform="scale(1)"><g><path d="M43.7 2.43L41.63 4.54 22.5-13.99 3.38 4.54 1.3 2.43 21.02-16.7 21.02-22.99 1.89-22.99 1.89-25.92 21.02-25.92 21.02-36.27 23.98-36.27 23.98-25.92 43.11-25.92 43.11-22.99 23.98-22.99 23.98-16.7 43.7 2.43ZM86.49-16.83L86.49-16.83 74.47-16.83 74.47-10.71 87.21-10.71 87.21-7.79 74.47-7.79 74.47-0.81 71.5-0.81 71.5-7.79 57.15-7.79 57.15-10.71 71.5-10.71 71.5-16.83 59.09-16.83Q58.27-16.83 57.87-17.46L57.87-17.46Q57.64-17.77 57.6-18.13 57.55-18.5 57.73-18.86L57.73-18.86 62.05-29.56 56.97-29.56 56.97-32.53 63.27-32.53 64.89-36.54 67.63-35.41 66.47-32.53 87.21-32.53 87.21-29.56 65.25-29.56 61.29-19.75 71.5-19.75 71.5-27.31 74.47-27.31 74.47-19.75 86.49-19.75 86.49-16.83ZM48.83 4.41L48.83 4.41 47.25 1.89 52.24-1.21 52.24-22.09 47.02-22.09 47.02-25.02 53.73-25.02Q54.36-25.02 54.77-24.61 55.17-24.21 55.17-23.58L55.17-23.58 55.17-1.26 59.04 0.94 87.66 0.94 87.66 3.92 58.63 3.92Q58.23 3.92 57.87 3.69L57.87 3.69 53.73 1.26 48.83 4.41ZM55.48-27.63L52.74-26.5 49.23-35.1 51.98-36.18 55.48-27.63ZM131.49-16.83L131.49-16.83 119.47-16.83 119.47-10.71 132.21-10.71 132.21-7.79 119.47-7.79 119.47-0.81 116.5-0.81 116.5-7.79 102.15-7.79 102.15-10.71 116.5-10.71 116.5-16.83 104.08-16.83Q103.28-16.83 102.87-17.46L102.87-17.46Q102.64-17.77 102.6-18.13 102.56-18.5 102.73-18.86L102.73-18.86 107.06-29.56 101.97-29.56 101.97-32.53 108.27-32.53 109.89-36.54 112.63-35.41 111.47-32.53 132.21-32.53 132.21-29.56 110.25-29.56 106.29-19.75 116.5-19.75 116.5-27.31 119.47-27.31 119.47-19.75 131.49-19.75 131.49-16.83ZM93.83 4.41L93.83 4.41 92.25 1.89 97.25-1.21 97.25-22.09 92.03-22.09 92.03-25.02 98.73-25.02Q99.36-25.02 99.77-24.61 100.17-24.21 100.17-23.58L100.17-23.58 100.17-1.26 104.04 0.94 132.66 0.94 132.66 3.92 103.64 3.92Q103.23 3.92 102.87 3.69L102.87 3.69 98.73 1.26 93.83 4.41ZM100.48-27.63L97.74-26.5 94.23-35.1 96.97-36.18 100.48-27.63ZM167.35-2.92L167.35-2.92 147.15-2.92Q146.52-2.92 146.09-3.35 145.66-3.78 145.66-4.41L145.66-4.41 145.66-19.71Q145.66-20.34 146.09-20.75 146.52-21.15 147.15-21.15L147.15-21.15 167.35-21.15Q167.99-21.15 168.41-20.75 168.84-20.34 168.84-19.71L168.84-19.71 168.84-4.41Q168.84-3.78 168.41-3.35 167.99-2.92 167.35-2.92L167.35-2.92ZM140.85 3.96L140.85 3.96 137.88 3.96 137.88-27.04Q137.88-27.68 138.31-28.1 138.74-28.53 139.37-28.53L139.37-28.53 143.19-28.53 140.31-34.6 142.97-35.87 146.12-29.29 144.54-28.53 155.79-28.53 155.79-36.18 158.76-36.18 158.76-28.53 168.48-28.53 171.54-35.77 174.24-34.65 171.68-28.53 175.19-28.53Q175.81-28.53 176.24-28.1 176.67-27.68 176.67-27.04L176.67-27.04 176.67 2.34Q176.67 2.97 176.24 3.4 175.81 3.82 175.19 3.82L175.19 3.82 160.29 3.82 160.29 0.85 173.7 0.85 173.7-25.56 140.85-25.56 140.85 3.96ZM148.63-18.22L148.63-5.89 165.91-5.89 165.91-18.22 148.63-18.22Z" transform="translate(-1.2999999523162842, 36.540000915527344)"></path></g> <!----> <!----> <!----> <!----> <!----> <!----> <!----></g></g> <g data-gra="path-slogan" fill-rule="" class="tp-slogan iconsvg-slogansvg" fill="#333" transform="translate(5,47.08000183105469)"><rect x="0" height="1" y="3.9750003814697266" width="22.80500030517578"></rect> <rect height="1" y="3.9750003814697266" width="22.80500030517578" x="142.56499481201172"></rect> <g transform="translate(25.80500030517578,0)"><g transform="scale(1)"><path d="M4.41 0L0.94 0L0.94-8.58L4.45-8.58Q7.92-8.39 8.06-4.41L8.06-4.41Q7.88-0.09 4.41 0L4.41 0ZM4.27-7.64L2.11-7.64L2.11-0.98L4.36-0.98Q6.80-1.13 6.89-4.31L6.89-4.31Q6.84-7.55 4.27-7.64L4.27-7.64ZM15.19 0L14.34-2.48L10.88-2.48L9.98 0L8.81 0L12.05-8.58L13.36-8.58L16.45 0L15.19 0ZM12.61-7.31L11.25-3.52L13.92-3.52L12.66-7.31L12.61-7.31ZM17.48-8.58L18.66-8.58L18.66-1.03L23.02-1.03L23.02 0L17.48 0L17.48-8.58ZM24.33-8.58L25.50-8.58L25.50 0L24.33 0L24.33-8.58ZM33.14 0L32.30-2.48L28.83-2.48L27.94 0L26.77 0L30-8.58L31.31-8.58L34.41 0L33.14 0ZM30.56-7.31L29.20-3.52L31.88-3.52L30.61-7.31L30.56-7.31ZM36.84-8.58L41.16-1.64L41.16-8.58L42.28-8.58L42.28 0L40.97 0L36.61-6.94L36.56-6.94L36.56 0L35.44 0L35.44-8.58L36.84-8.58ZM47.39-8.58L48.56-8.58L48.56-1.03L52.92-1.03L52.92 0L47.39 0L47.39-8.58ZM54.23-8.58L55.41-8.58L55.41 0L54.23 0L54.23-8.58ZM63.05 0L62.20-2.48L58.73-2.48L57.84 0L56.67 0L59.91-8.58L61.22-8.58L64.31 0L63.05 0ZM60.47-7.31L59.11-3.52L61.78-3.52L60.52-7.31L60.47-7.31ZM66.75-8.58L71.06-1.64L71.06-8.58L72.19-8.58L72.19 0L70.88 0L66.52-6.94L66.47-6.94L66.47 0L65.34 0L65.34-8.58L66.75-8.58ZM80.25-6.09L80.25-6.09L79.17-6.09Q79.08-7.73 77.02-7.83L77.02-7.83Q75.09-7.78 75.09-6.33L75.09-6.33Q75.09-5.39 76.13-5.25L76.13-5.25L78.56-4.69Q80.48-4.22 80.48-2.34L80.48-2.34Q80.44 0.05 77.11 0.14L77.11 0.14Q75.28 0.14 74.53-0.61L74.53-0.61Q73.59-1.31 73.64-2.77L73.64-2.77L74.77-2.77Q74.81-0.80 77.11-0.75L77.11-0.75Q79.36-0.80 79.41-2.20L79.41-2.20Q79.59-3.38 77.53-3.75L77.53-3.75L75.75-4.13Q73.92-4.64 73.92-6.19L73.92-6.19Q74.06-8.72 76.92-8.81L76.92-8.81Q80.16-8.81 80.25-6.09ZM83.11-5.06L87.61-5.06L87.61-8.58L88.78-8.58L88.78 0L87.61 0L87.61-3.98L83.11-3.98L83.11 0L81.94 0L81.94-8.58L83.11-8.58L83.11-5.06ZM96.23 0L95.39-2.48L91.92-2.48L91.03 0L89.86 0L93.09-8.58L94.41-8.58L97.50 0L96.23 0ZM93.66-7.31L92.30-3.52L94.97-3.52L93.70-7.31L93.66-7.31ZM99.94-8.58L104.25-1.64L104.25-8.58L105.38-8.58L105.38 0L104.06 0L99.70-6.94L99.66-6.94L99.66 0L98.53 0L98.53-8.58L99.94-8.58ZM113.58-3.61L110.95-3.61L110.95-4.59L114.70-4.59L114.70 0L113.95 0L113.67-1.08Q112.69 0.09 110.86 0.14L110.86 0.14Q109.13 0.14 108.19-0.75L108.19-0.75Q106.78-2.06 106.83-4.36L106.83-4.36Q107.16-8.63 110.91-8.81L110.91-8.81Q114.09-8.63 114.56-6L114.56-6L113.44-6Q112.97-7.78 110.86-7.83L110.86-7.83Q108.19-7.64 108.05-4.31L108.05-4.31Q108.05-0.75 110.91-0.75L110.91-0.75Q111.94-0.75 112.69-1.31L112.69-1.31Q113.63-2.06 113.58-3.61L113.58-3.61Z" transform="translate(-0.9375, 8.8125)"></path></g></g></g></g></g><defs v-gra="od"></defs></svg>